<svg xmlns="http://www.w3.org/2000/svg" viewBox="0 0 900 460" width="900">

  <rect width="900" height="460" fill="#F5F1EB"/>

  <polygon points="520,0 900,0 900,460 620,460" fill="#EDE9E0"/>
  <line x1="520" y1="0" x2="620" y2="460" stroke="#8B6914" stroke-width="1.5" opacity="0.7"/>

  <path d="M900,0 A180,180 0 0,1 900,180" fill="none" stroke="#8B6914" stroke-width="0.6" opacity="0.2"/>
  <path d="M900,0 A140,140 0 0,1 900,140" fill="none" stroke="#8B6914" stroke-width="0.4" opacity="0.18"/>
  <path d="M900,0 A100,100 0 0,1 900,100" fill="none" stroke="#8B6914" stroke-width="0.3" opacity="0.15"/>
  <path d="M900,0 A60,60   0 0,1 900,60"  fill="none" stroke="#8B6914" stroke-width="0.3" opacity="0.12"/>

  <circle cx="710" cy="100" r="5"   fill="#8B6914" opacity="0.8"/>
  <circle cx="790" cy="160" r="3.5" fill="#1a1a2e" opacity="0.35"/>
  <circle cx="760" cy="230" r="4"   fill="#1a1a2e" opacity="0.3"/>
  <circle cx="840" cy="240" r="3"   fill="#8B6914" opacity="0.6"/>
  <circle cx="720" cy="300" r="3.5" fill="#1a1a2e" opacity="0.28"/>
  <circle cx="800" cy="340" r="2.5" fill="#1a1a2e" opacity="0.25"/>
  <circle cx="860" cy="300" r="2"   fill="#1a1a2e" opacity="0.2"/>
  <circle cx="680" cy="200" r="2"   fill="#1a1a2e" opacity="0.2"/>
  <circle cx="870" cy="180" r="1.5" fill="#1a1a2e" opacity="0.18"/>
  <line x1="710" y1="100" x2="790" y2="160" stroke="#8B6914" stroke-width="0.7" opacity="0.45"/>
  <line x1="710" y1="100" x2="680" y2="200" stroke="#1a1a2e" stroke-width="0.4" opacity="0.15"/>
  <line x1="790" y1="160" x2="760" y2="230" stroke="#1a1a2e" stroke-width="0.4" opacity="0.15"/>
  <line x1="790" y1="160" x2="840" y2="240" stroke="#8B6914" stroke-width="0.6" opacity="0.35"/>
  <line x1="760" y1="230" x2="720" y2="300" stroke="#1a1a2e" stroke-width="0.4" opacity="0.15"/>
  <line x1="840" y1="240" x2="800" y2="340" stroke="#1a1a2e" stroke-width="0.4" opacity="0.15"/>
  <line x1="840" y1="240" x2="860" y2="300" stroke="#1a1a2e" stroke-width="0.4" opacity="0.15"/>
  <line x1="870" y1="180" x2="790" y2="160" stroke="#1a1a2e" stroke-width="0.3" opacity="0.1" stroke-dasharray="3 5"/>
  <line x1="760" y1="230" x2="840" y2="240" stroke="#1a1a2e" stroke-width="0.3" opacity="0.1"/>

  <line x1="38"  y1="0"   x2="38"  y2="460" stroke="#1a1a2e" stroke-width="0.3" opacity="0.06"/>
  <line x1="0"   y1="72"  x2="520" y2="72"  stroke="#1a1a2e" stroke-width="0.4" opacity="0.1"/>
  <line x1="0"   y1="370" x2="900" y2="370" stroke="#1a1a2e" stroke-width="0.4" opacity="0.1"/>
  <line x1="0"   y1="410" x2="900" y2="410" stroke="#1a1a2e" stroke-width="0.4" opacity="0.07"/>

  <text x="55" y="46" font-family="'Courier New',monospace" font-size="9" fill="#8B6914" letter-spacing="3.5" opacity="0.9">IIIT SRI CITY</text>
  <text x="275" y="46" font-family="'Courier New',monospace" font-size="9" fill="#1a1a2e" letter-spacing="2" opacity="0.35">·  B.TECH CSE  ·  2023 – 2027</text>

  <text x="55" y="175" font-family="Georgia,serif" font-size="110" font-weight="400" fill="#1a1a2e" letter-spacing="-4" opacity="0.9">K.</text>
  <text x="55" y="298" font-family="Georgia,serif" font-size="110" font-weight="400" fill="#8B6914" letter-spacing="-3">Srihesh</text>

  <rect x="55" y="318" width="50" height="1.5" fill="#8B6914" opacity="0.8"/>
  <text x="55"  y="344" font-family="'Courier New',monospace" font-size="9.5" fill="#1a1a2e" letter-spacing="2.5" opacity="0.5">GRAPH INTELLIGENCE</text>
  <text x="253" y="344" font-family="'Courier New',monospace" font-size="9.5" fill="#8B6914" letter-spacing="1" opacity="0.9"> · </text>
  <text x="267" y="344" font-family="'Courier New',monospace" font-size="9.5" fill="#1a1a2e" letter-spacing="2.5" opacity="0.5">SYSTEMS ARCHITECT</text>
  <text x="455" y="344" font-family="'Courier New',monospace" font-size="9.5" fill="#8B6914" letter-spacing="1" opacity="0.9"> · </text>
  <text x="469" y="344" font-family="'Courier New',monospace" font-size="9.5" fill="#1a1a2e" letter-spacing="2.5" opacity="0.5">FULL-STACK</text>

  <text x="55"  y="393" font-family="'Courier New',monospace" font-size="8" fill="#8B6914" letter-spacing="1.8" opacity="0.8">RESEARCH</text>
  <text x="55"  y="407" font-family="'Courier New',monospace" font-size="7.5" fill="#1a1a2e" letter-spacing="1" opacity="0.32">GNN · FFT · LONG CONVOLUTIONS</text>
  <line x1="210" y1="378" x2="210" y2="420" stroke="#1a1a2e" stroke-width="0.4" opacity="0.12"/>
  <text x="222" y="393" font-family="'Courier New',monospace" font-size="8" fill="#8B6914" letter-spacing="1.8" opacity="0.8">ENGINEERING</text>
  <text x="222" y="407" font-family="'Courier New',monospace" font-size="7.5" fill="#1a1a2e" letter-spacing="1" opacity="0.32">MERN · REST · DOCKER · CI/CD</text>
  <line x1="407" y1="378" x2="407" y2="420" stroke="#1a1a2e" stroke-width="0.4" opacity="0.12"/>
  <text x="419" y="393" font-family="'Courier New',monospace" font-size="8" fill="#8B6914" letter-spacing="1.8" opacity="0.8">INTELLIGENCE</text>
  <text x="419" y="407" font-family="'Courier New',monospace" font-size="7.5" fill="#1a1a2e" letter-spacing="1" opacity="0.32">NLP · VECTOR DB · RAG</text>

  <text x="55"  y="443" font-family="'Courier New',monospace" font-size="8" fill="#1a1a2e" letter-spacing="1.5" opacity="0.3">sriheshk06@gmail.com</text>
  <text x="55"  y="455" font-family="'Courier New',monospace" font-size="7.5" fill="#1a1a2e" letter-spacing="1" opacity="0.22">Eluru, Andhra Pradesh · India</text>

  <polyline points="880,440 880,455 865,455" fill="none" stroke="#8B6914" stroke-width="1" opacity="0.35"/>
  <polyline points="38,18 38,30 52,30" fill="none" stroke="#8B6914" stroke-width="1" opacity="0.35"/>

</svg>
